<svg viewBox="0 0 220 220" xmlns="http://www.w3.org/2000/svg"><circle cx="144.0" cy="110.0" r="0.70" fill="#2a2320" opacity="0.35"></circle><circle cx="148.8" cy="110.0" r="0.92" fill="#2a2320" opacity="0.45"></circle><circle cx="153.6" cy="110.0" r="1.14" fill="#2a2320" opacity="0.55"></circle><circle cx="158.4" cy="110.0" r="1.36" fill="#2a2320" opacity="0.65"></circle><circle cx="163.2" cy="110.0" r="1.58" fill="#2a2320" opacity="0.75"></circle><circle cx="168.0" cy="110.0" r="1.80" fill="#2a2320" opacity="0.85"></circle><circle cx="149.8" cy="113.5" r="0.70" fill="#2a2320" opacity="0.35"></circle><circle cx="155.0" cy="113.9" r="0.82" fill="#2a2320" opacity="0.41"></circle><circle cx="160.1" cy="114.4" r="0.94" fill="#2a2320" opacity="0.46"></circle><circle cx="165.2" cy="114.8" r="1.07" fill="#2a2320" opacity="0.52"></circle><circle cx="170.3" cy="115.3" r="1.19" fill="#2a2320" opacity="0.57"></circle><circle cx="175.4" cy="115.7" r="1.31" fill="#2a2320" opacity="0.63"></circle><circle cx="180.5" cy="116.2" r="1.43" fill="#2a2320" opacity="0.68"></circle><circle cx="185.6" cy="116.6" r="1.56" fill="#2a2320" opacity="0.74"></circle><circle cx="190.7" cy="117.1" r="1.68" fill="#2a2320" opacity="0.79"></circle><circle cx="195.8" cy="117.5" r="1.80" fill="#2a2320" opacity="0.85"></circle><circle cx="143.5" cy="115.9" r="0.70" fill="#2a2320" opacity="0.35"></circle><circle cx="148.4" cy="116.8" r="0.79" fill="#2a2320" opacity="0.39"></circle><circle cx="153.3" cy="117.6" r="0.88" fill="#2a2320" opacity="0.43"></circle><circle cx="158.2" cy="118.5" r="0.97" fill="#2a2320" opacity="0.47"></circle><circle cx="163.1" cy="119.4" r="1.07" fill="#2a2320" opacity="0.52"></circle><circle cx="168.0" cy="120.2" r="1.16" fill="#2a2320" opacity="0.56"></circle><circle cx="172.9" cy="121.1" r="1.25" fill="#2a2320" opacity="0.60"></circle><circle cx="177.8" cy="121.9" r="1.34" fill="#2a2320" opacity="0.64"></circle><circle cx="182.7" cy="122.8" r="1.43" fill="#2a2320" opacity="0.68"></circle><circle cx="187.6" cy="123.7" r="1.52" fill="#2a2320" opacity="0.72"></circle><circle cx="192.5" cy="124.5" r="1.62" fill="#2a2320" opacity="0.77"></circle><circle cx="197.4" cy="125.4" r="1.71" fill="#2a2320" opacity="0.81"></circle><circle cx="202.3" cy="126.3" r="1.80" fill="#2a2320" opacity="0.85"></circle><circle cx="148.6" cy="120.4" r="0.70" fill="#2a2320" opacity="0.35"></circle><circle cx="153.7" cy="121.7" r="0.86" fill="#2a2320" opacity="0.42"></circle><circle cx="158.8" cy="123.1" r="1.01" fill="#2a2320" opacity="0.49"></circle><circle cx="163.9" cy="124.5" r="1.17" fill="#2a2320" opacity="0.56"></circle><circle cx="169.1" cy="125.8" r="1.33" fill="#2a2320" opacity="0.64"></circle><circle cx="174.2" cy="127.2" r="1.49" fill="#2a2320" opacity="0.71"></circle><circle cx="179.3" cy="128.6" r="1.64" fill="#2a2320" opacity="0.78"></circle><circle cx="184.4" cy="129.9" r="1.80" fill="#2a2320" opacity="0.85"></circle><circle cx="141.9" cy="121.6" r="0.70" fill="#2a2320" opacity="0.35"></circle><circle cx="146.7" cy="123.4" r="0.82" fill="#2a2320" opacity="0.41"></circle><circle cx="151.4" cy="125.1" r="0.94" fill="#2a2320" opacity="0.46"></circle><circle cx="156.2" cy="126.8" r="1.07" fill="#2a2320" opacity="0.52"></circle><circle cx="160.9" cy="128.5" r="1.19" fill="#2a2320" opacity="0.57"></circle><circle cx="165.6" cy="130.2" r="1.31" fill="#2a2320" opacity="0.63"></circle><circle cx="170.4" cy="132.0" r="1.43" fill="#2a2320" opacity="0.68"></circle><circle cx="175.1" cy="133.7" r="1.56" fill="#2a2320" opacity="0.74"></circle><circle cx="179.8" cy="135.4" r="1.68" fill="#2a2320" opacity="0.79"></circle><circle cx="184.6" cy="137.1" r="1.80" fill="#2a2320" opacity="0.85"></circle><circle cx="146.3" cy="126.9" r="0.70" fill="#2a2320" opacity="0.35"></circle><circle cx="150.7" cy="129.0" r="0.92" fill="#2a2320" opacity="0.45"></circle><circle cx="155.1" cy="131.0" r="1.14" fill="#2a2320" opacity="0.55"></circle><circle cx="159.5" cy="133.1" r="1.36" fill="#2a2320" opacity="0.65"></circle><circle cx="163.9" cy="135.1" r="1.58" fill="#2a2320" opacity="0.75"></circle><circle cx="168.3" cy="137.2" r="1.80" fill="#2a2320" opacity="0.85"></circle><circle cx="139.4" cy="127.0" r="0.70" fill="#2a2320" opacity="0.35"></circle><circle cx="143.6" cy="129.4" r="1.80" fill="#2a2320" opacity="0.85"></circle><circle cx="142.8" cy="132.9" r="0.70" fill="#2a2320" opacity="0.35"></circle><circle cx="147.0" cy="135.9" r="1.25" fill="#2a2320" opacity="0.60"></circle><circle cx="151.3" cy="138.9" r="1.80" fill="#2a2320" opacity="0.85"></circle><circle cx="136.0" cy="131.9" r="0.70" fill="#2a2320" opacity="0.35"></circle><circle cx="139.7" cy="135.0" r="0.92" fill="#2a2320" opacity="0.45"></circle><circle cx="143.4" cy="138.1" r="1.14" fill="#2a2320" opacity="0.55"></circle><circle cx="147.1" cy="141.2" r="1.36" fill="#2a2320" opacity="0.65"></circle><circle cx="150.8" cy="144.3" r="1.58" fill="#2a2320" opacity="0.75"></circle><circle cx="154.5" cy="147.4" r="1.80" fill="#2a2320" opacity="0.85"></circle><circle cx="138.3" cy="138.3" r="0.70" fill="#2a2320" opacity="0.35"></circle><circle cx="141.5" cy="141.5" r="0.97" fill="#2a2320" opacity="0.47"></circle><circle cx="144.8" cy="144.8" r="1.25" fill="#2a2320" opacity="0.60"></circle><circle cx="148.0" cy="148.0" r="1.52" fill="#2a2320" opacity="0.72"></circle><circle cx="151.3" cy="151.3" r="1.80" fill="#2a2320" opacity="0.85"></circle><circle cx="131.9" cy="136.0" r="0.70" fill="#2a2320" opacity="0.35"></circle><circle cx="135.2" cy="140.1" r="0.81" fill="#2a2320" opacity="0.40"></circle><circle cx="138.6" cy="144.1" r="0.92" fill="#2a2320" opacity="0.45"></circle><circle cx="142.0" cy="148.1" r="1.03" fill="#2a2320" opacity="0.50"></circle><circle cx="145.3" cy="152.1" r="1.14" fill="#2a2320" opacity="0.55"></circle><circle cx="148.7" cy="156.1" r="1.25" fill="#2a2320" opacity="0.60"></circle><circle cx="152.1" cy="160.2" r="1.36" fill="#2a2320" opacity="0.65"></circle><circle cx="155.5" cy="164.2" r="1.47" fill="#2a2320" opacity="0.70"></circle><circle cx="158.8" cy="168.2" r="1.58" fill="#2a2320" opacity="0.75"></circle><circle cx="162.2" cy="172.2" r="1.69" fill="#2a2320" opacity="0.80"></circle><circle cx="165.6" cy="176.2" r="1.80" fill="#2a2320" opacity="0.85"></circle><circle cx="132.9" cy="142.8" r="0.70" fill="#2a2320" opacity="0.35"></circle><circle cx="135.7" cy="146.8" r="0.80" fill="#2a2320" opacity="0.40"></circle><circle cx="138.5" cy="150.8" r="0.90" fill="#2a2320" opacity="0.44"></circle><circle cx="141.3" cy="154.8" r="1.00" fill="#2a2320" opacity="0.49"></circle><circle cx="144.2" cy="158.8" r="1.10" fill="#2a2320" opacity="0.53"></circle><circle cx="147.0" cy="162.8" r="1.20" fill="#2a2320" opacity="0.58"></circle><circle cx="149.8" cy="166.8" r="1.30" fill="#2a2320" opacity="0.62"></circle><circle cx="152.6" cy="170.8" r="1.40" fill="#2a2320" opacity="0.67"></circle><circle cx="155.4" cy="174.8" r="1.50" fill="#2a2320" opacity="0.71"></circle><circle cx="158.2" cy="178.8" r="1.60" fill="#2a2320" opacity="0.76"></circle><circle cx="161.0" cy="182.8" r="1.70" fill="#2a2320" opacity="0.80"></circle><circle cx="163.8" cy="186.8" r="1.80" fill="#2a2320" opacity="0.85"></circle><circle cx="127.0" cy="139.4" r="0.70" fill="#2a2320" opacity="0.35"></circle><circle cx="129.4" cy="143.6" r="0.82" fill="#2a2320" opacity="0.41"></circle><circle cx="131.8" cy="147.7" r="0.94" fill="#2a2320" opacity="0.46"></circle><circle cx="134.1" cy="151.8" r="1.07" fill="#2a2320" opacity="0.52"></circle><circle cx="136.5" cy="155.9" r="1.19" fill="#2a2320" opacity="0.57"></circle><circle cx="138.9" cy="160.0" r="1.31" fill="#2a2320" opacity="0.63"></circle><circle cx="141.3" cy="164.2" r="1.43" fill="#2a2320" opacity="0.68"></circle><circle cx="143.6" cy="168.3" r="1.56" fill="#2a2320" opacity="0.74"></circle><circle cx="146.0" cy="172.4" r="1.68" fill="#2a2320" opacity="0.79"></circle><circle cx="148.4" cy="176.5" r="1.80" fill="#2a2320" opacity="0.85"></circle><circle cx="126.9" cy="146.3" r="0.70" fill="#2a2320" opacity="0.35"></circle><circle cx="129.0" cy="150.7" r="0.84" fill="#2a2320" opacity="0.41"></circle><circle cx="131.0" cy="155.1" r="0.97" fill="#2a2320" opacity="0.47"></circle><circle cx="133.1" cy="159.5" r="1.11" fill="#2a2320" opacity="0.54"></circle><circle cx="135.2" cy="163.9" r="1.25" fill="#2a2320" opacity="0.60"></circle><circle cx="137.2" cy="168.4" r="1.39" fill="#2a2320" opacity="0.66"></circle><circle cx="139.3" cy="172.8" r="1.52" fill="#2a2320" opacity="0.72"></circle><circle cx="141.3" cy="177.2" r="1.66" fill="#2a2320" opacity="0.79"></circle><circle cx="143.4" cy="181.6" r="1.80" fill="#2a2320" opacity="0.85"></circle><circle cx="121.6" cy="141.9" r="0.70" fill="#2a2320" opacity="0.35"></circle><circle cx="123.3" cy="146.6" r="0.88" fill="#2a2320" opacity="0.43"></circle><circle cx="125.0" cy="151.3" r="1.07" fill="#2a2320" opacity="0.52"></circle><circle cx="126.7" cy="156.0" r="1.25" fill="#2a2320" opacity="0.60"></circle><circle cx="128.5" cy="160.7" r="1.43" fill="#2a2320" opacity="0.68"></circle><circle cx="130.2" cy="165.4" r="1.62" fill="#2a2320" opacity="0.77"></circle><circle cx="131.9" cy="170.1" r="1.80" fill="#2a2320" opacity="0.85"></circle><circle cx="NaN" cy="NaN" r="NaN" fill="#2a2320" opacity="NaN"></circle><circle cx="115.9" cy="143.5" r="0.70" fill="#2a2320" opacity="0.35"></circle><circle cx="116.9" cy="148.9" r="1.07" fill="#2a2320" opacity="0.52"></circle><circle cx="117.8" cy="154.3" r="1.43" fill="#2a2320" opacity="0.68"></circle><circle cx="118.8" cy="159.7" r="1.80" fill="#2a2320" opacity="0.85"></circle><circle cx="113.5" cy="149.8" r="0.70" fill="#2a2320" opacity="0.35"></circle><circle cx="113.9" cy="154.4" r="0.97" fill="#2a2320" opacity="0.47"></circle><circle cx="114.3" cy="159.0" r="1.25" fill="#2a2320" opacity="0.60"></circle><circle cx="114.7" cy="163.6" r="1.52" fill="#2a2320" opacity="0.72"></circle><circle cx="115.1" cy="168.2" r="1.80" fill="#2a2320" opacity="0.85"></circle><circle cx="110.0" cy="144.0" r="0.70" fill="#2a2320" opacity="0.35"></circle><circle cx="110.0" cy="148.9" r="0.92" fill="#2a2320" opacity="0.45"></circle><circle cx="110.0" cy="153.9" r="1.14" fill="#2a2320" opacity="0.55"></circle><circle cx="110.0" cy="158.8" r="1.36" fill="#2a2320" opacity="0.65"></circle><circle cx="110.0" cy="163.8" r="1.58" fill="#2a2320" opacity="0.75"></circle><circle cx="110.0" cy="168.7" r="1.80" fill="#2a2320" opacity="0.85"></circle><circle cx="106.5" cy="149.8" r="0.70" fill="#2a2320" opacity="0.35"></circle><circle cx="106.1" cy="155.0" r="0.82" fill="#2a2320" opacity="0.41"></circle><circle cx="105.6" cy="160.2" r="0.94" fill="#2a2320" opacity="0.46"></circle><circle cx="105.2" cy="165.4" r="1.07" fill="#2a2320" opacity="0.52"></circle><circle cx="104.7" cy="170.5" r="1.19" fill="#2a2320" opacity="0.57"></circle><circle cx="104.3" cy="175.7" r="1.31" fill="#2a2320" opacity="0.63"></circle><circle cx="103.8" cy="180.9" r="1.43" fill="#2a2320" opacity="0.68"></circle><circle cx="103.3" cy="186.1" r="1.56" fill="#2a2320" opacity="0.74"></circle><circle cx="102.9" cy="191.2" r="1.68" fill="#2a2320" opacity="0.79"></circle><circle cx="102.4" cy="196.4" r="1.80" fill="#2a2320" opacity="0.85"></circle><circle cx="104.1" cy="143.5" r="0.70" fill="#2a2320" opacity="0.35"></circle><circle cx="103.2" cy="148.4" r="0.79" fill="#2a2320" opacity="0.39"></circle><circle cx="102.4" cy="153.3" r="0.88" fill="#2a2320" opacity="0.43"></circle><circle cx="101.5" cy="158.2" r="0.97" fill="#2a2320" opacity="0.47"></circle><circle cx="100.6" cy="163.1" r="1.07" fill="#2a2320" opacity="0.52"></circle><circle cx="99.8" cy="168.0" r="1.16" fill="#2a2320" opacity="0.56"></circle><circle cx="98.9" cy="172.9" r="1.25" fill="#2a2320" opacity="0.60"></circle><circle cx="98.0" cy="177.8" r="1.34" fill="#2a2320" opacity="0.64"></circle><circle cx="97.2" cy="182.7" r="1.43" fill="#2a2320" opacity="0.68"></circle><circle cx="96.3" cy="187.6" r="1.52" fill="#2a2320" opacity="0.72"></circle><circle cx="95.4" cy="192.6" r="1.62" fill="#2a2320" opacity="0.77"></circle><circle cx="94.6" cy="197.5" r="1.71" fill="#2a2320" opacity="0.81"></circle><circle cx="93.7" cy="202.4" r="1.80" fill="#2a2320" opacity="0.85"></circle><circle cx="99.6" cy="148.6" r="0.70" fill="#2a2320" opacity="0.35"></circle><circle cx="98.3" cy="153.7" r="0.86" fill="#2a2320" opacity="0.42"></circle><circle cx="96.9" cy="158.7" r="1.01" fill="#2a2320" opacity="0.49"></circle><circle cx="95.6" cy="163.8" r="1.17" fill="#2a2320" opacity="0.56"></circle><circle cx="94.2" cy="168.8" r="1.33" fill="#2a2320" opacity="0.64"></circle><circle cx="92.9" cy="173.9" r="1.49" fill="#2a2320" opacity="0.71"></circle><circle cx="91.5" cy="178.9" r="1.64" fill="#2a2320" opacity="0.78"></circle><circle cx="90.2" cy="184.0" r="1.80" fill="#2a2320" opacity="0.85"></circle><circle cx="98.4" cy="141.9" r="0.70" fill="#2a2320" opacity="0.35"></circle><circle cx="96.7" cy="146.6" r="0.82" fill="#2a2320" opacity="0.41"></circle><circle cx="95.0" cy="151.3" r="0.94" fill="#2a2320" opacity="0.46"></circle><circle cx="93.3" cy="155.9" r="1.07" fill="#2a2320" opacity="0.52"></circle><circle cx="91.6" cy="160.6" r="1.19" fill="#2a2320" opacity="0.57"></circle><circle cx="89.9" cy="165.3" r="1.31" fill="#2a2320" opacity="0.63"></circle><circle cx="88.2" cy="169.9" r="1.43" fill="#2a2320" opacity="0.68"></circle><circle cx="86.5" cy="174.6" r="1.56" fill="#2a2320" opacity="0.74"></circle><circle cx="84.8" cy="179.3" r="1.68" fill="#2a2320" opacity="0.79"></circle><circle cx="83.1" cy="183.9" r="1.80" fill="#2a2320" opacity="0.85"></circle><circle cx="93.1" cy="146.3" r="0.70" fill="#2a2320" opacity="0.35"></circle><circle cx="91.1" cy="150.5" r="0.92" fill="#2a2320" opacity="0.45"></circle><circle cx="89.1" cy="154.8" r="1.14" fill="#2a2320" opacity="0.55"></circle><circle cx="87.1" cy="159.1" r="1.36" fill="#2a2320" opacity="0.65"></circle><circle cx="85.1" cy="163.4" r="1.58" fill="#2a2320" opacity="0.75"></circle><circle cx="83.1" cy="167.6" r="1.80" fill="#2a2320" opacity="0.85"></circle><circle cx="93.0" cy="139.4" r="0.70" fill="#2a2320" opacity="0.35"></circle><circle cx="90.8" cy="143.3" r="1.80" fill="#2a2320" opacity="0.85"></circle><circle cx="87.1" cy="142.8" r="0.70" fill="#2a2320" opacity="0.35"></circle><circle cx="84.0" cy="147.1" r="1.25" fill="#2a2320" opacity="0.60"></circle><circle cx="81.0" cy="151.4" r="1.80" fill="#2a2320" opacity="0.85"></circle><circle cx="88.1" cy="136.0" r="0.70" fill="#2a2320" opacity="0.35"></circle><circle cx="85.0" cy="139.8" r="0.92" fill="#2a2320" opacity="0.45"></circle><circle cx="81.8" cy="143.6" r="1.14" fill="#2a2320" opacity="0.55"></circle><circle cx="78.6" cy="147.4" r="1.36" fill="#2a2320" opacity="0.65"></circle><circle cx="75.4" cy="151.2" r="1.58" fill="#2a2320" opacity="0.75"></circle><circle cx="72.3" cy="155.0" r="1.80" fill="#2a2320" opacity="0.85"></circle><circle cx="81.7" cy="138.3" r="0.70" fill="#2a2320" opacity="0.35"></circle><circle cx="78.3" cy="141.7" r="0.97" fill="#2a2320" opacity="0.47"></circle><circle cx="75.0" cy="145.0" r="1.25" fill="#2a2320" opacity="0.60"></circle><circle cx="71.6" cy="148.4" r="1.52" fill="#2a2320" opacity="0.72"></circle><circle cx="68.2" cy="151.8" r="1.80" fill="#2a2320" opacity="0.85"></circle><circle cx="84.0" cy="131.9" r="0.70" fill="#2a2320" opacity="0.35"></circle><circle cx="80.3" cy="135.0" r="0.80" fill="#2a2320" opacity="0.40"></circle><circle cx="76.6" cy="138.0" r="0.90" fill="#2a2320" opacity="0.44"></circle><circle cx="72.9" cy="141.1" r="1.00" fill="#2a2320" opacity="0.49"></circle><circle cx="69.2" cy="144.2" r="1.10" fill="#2a2320" opacity="0.53"></circle><circle cx="65.5" cy="147.3" r="1.20" fill="#2a2320" opacity="0.58"></circle><circle cx="61.8" cy="150.4" r="1.30" fill="#2a2320" opacity="0.62"></circle><circle cx="58.1" cy="153.5" r="1.40" fill="#2a2320" opacity="0.67"></circle><circle cx="54.4" cy="156.6" r="1.50" fill="#2a2320" opacity="0.71"></circle><circle cx="50.7" cy="159.7" r="1.60" fill="#2a2320" opacity="0.76"></circle><circle cx="47.0" cy="162.8" r="1.70" fill="#2a2320" opacity="0.80"></circle><circle cx="43.4" cy="165.9" r="1.80" fill="#2a2320" opacity="0.85"></circle><circle cx="77.2" cy="132.9" r="0.70" fill="#2a2320" opacity="0.35"></circle><circle cx="73.2" cy="135.8" r="0.80" fill="#2a2320" opacity="0.40"></circle><circle cx="69.2" cy="138.6" r="0.90" fill="#2a2320" opacity="0.44"></circle><circle cx="65.2" cy="141.4" r="1.00" fill="#2a2320" opacity="0.49"></circle><circle cx="61.2" cy="144.2" r="1.10" fill="#2a2320" opacity="0.53"></circle><circle cx="57.2" cy="147.0" r="1.20" fill="#2a2320" opacity="0.58"></circle><circle cx="53.2" cy="149.8" r="1.30" fill="#2a2320" opacity="0.62"></circle><circle cx="49.2" cy="152.6" r="1.40" fill="#2a2320" opacity="0.67"></circle><circle cx="45.2" cy="155.4" r="1.50" fill="#2a2320" opacity="0.71"></circle><circle cx="41.1" cy="158.2" r="1.60" fill="#2a2320" opacity="0.76"></circle><circle cx="37.1" cy="161.0" r="1.70" fill="#2a2320" opacity="0.80"></circle><circle cx="33.1" cy="163.8" r="1.80" fill="#2a2320" opacity="0.85"></circle><circle cx="80.6" cy="127.0" r="0.70" fill="#2a2320" opacity="0.35"></circle><circle cx="76.0" cy="129.7" r="0.84" fill="#2a2320" opacity="0.41"></circle><circle cx="71.4" cy="132.3" r="0.97" fill="#2a2320" opacity="0.47"></circle><circle cx="66.8" cy="135.0" r="1.11" fill="#2a2320" opacity="0.54"></circle><circle cx="62.2" cy="137.6" r="1.25" fill="#2a2320" opacity="0.60"></circle><circle cx="57.6" cy="140.3" r="1.39" fill="#2a2320" opacity="0.66"></circle><circle cx="53.0" cy="142.9" r="1.52" fill="#2a2320" opacity="0.72"></circle><circle cx="48.4" cy="145.6" r="1.66" fill="#2a2320" opacity="0.79"></circle><circle cx="43.8" cy="148.2" r="1.80" fill="#2a2320" opacity="0.85"></circle><circle cx="73.7" cy="126.9" r="0.70" fill="#2a2320" opacity="0.35"></circle><circle cx="69.4" cy="128.9" r="0.84" fill="#2a2320" opacity="0.41"></circle><circle cx="65.1" cy="131.0" r="0.97" fill="#2a2320" opacity="0.47"></circle><circle cx="60.7" cy="133.0" r="1.11" fill="#2a2320" opacity="0.54"></circle><circle cx="56.4" cy="135.0" r="1.25" fill="#2a2320" opacity="0.60"></circle><circle cx="52.0" cy="137.0" r="1.39" fill="#2a2320" opacity="0.66"></circle><circle cx="47.7" cy="139.0" r="1.52" fill="#2a2320" opacity="0.72"></circle><circle cx="43.4" cy="141.1" r="1.66" fill="#2a2320" opacity="0.79"></circle><circle cx="39.0" cy="143.1" r="1.80" fill="#2a2320" opacity="0.85"></circle><circle cx="78.1" cy="121.6" r="0.70" fill="#2a2320" opacity="0.35"></circle><circle cx="73.5" cy="123.3" r="0.88" fill="#2a2320" opacity="0.43"></circle><circle cx="68.9" cy="125.0" r="1.07" fill="#2a2320" opacity="0.52"></circle><circle cx="64.3" cy="126.6" r="1.25" fill="#2a2320" opacity="0.60"></circle><circle cx="59.7" cy="128.3" r="1.43" fill="#2a2320" opacity="0.68"></circle><circle cx="55.1" cy="130.0" r="1.62" fill="#2a2320" opacity="0.77"></circle><circle cx="50.6" cy="131.6" r="1.80" fill="#2a2320" opacity="0.85"></circle><circle cx="NaN" cy="NaN" r="NaN" fill="#2a2320" opacity="NaN"></circle><circle cx="76.5" cy="115.9" r="0.70" fill="#2a2320" opacity="0.35"></circle><circle cx="71.1" cy="116.9" r="1.07" fill="#2a2320" opacity="0.52"></circle><circle cx="65.6" cy="117.8" r="1.43" fill="#2a2320" opacity="0.68"></circle><circle cx="60.1" cy="118.8" r="1.80" fill="#2a2320" opacity="0.85"></circle><circle cx="70.2" cy="113.5" r="0.70" fill="#2a2320" opacity="0.35"></circle><circle cx="65.4" cy="113.9" r="0.97" fill="#2a2320" opacity="0.47"></circle><circle cx="60.7" cy="114.3" r="1.25" fill="#2a2320" opacity="0.60"></circle><circle cx="56.0" cy="114.7" r="1.52" fill="#2a2320" opacity="0.72"></circle><circle cx="51.2" cy="115.1" r="1.80" fill="#2a2320" opacity="0.85"></circle><circle cx="76.0" cy="110.0" r="0.70" fill="#2a2320" opacity="0.35"></circle><circle cx="70.9" cy="110.0" r="0.92" fill="#2a2320" opacity="0.45"></circle><circle cx="65.8" cy="110.0" r="1.14" fill="#2a2320" opacity="0.55"></circle><circle cx="60.7" cy="110.0" r="1.36" fill="#2a2320" opacity="0.65"></circle><circle cx="55.6" cy="110.0" r="1.58" fill="#2a2320" opacity="0.75"></circle><circle cx="50.5" cy="110.0" r="1.80" fill="#2a2320" opacity="0.85"></circle><circle cx="70.2" cy="106.5" r="0.70" fill="#2a2320" opacity="0.35"></circle><circle cx="64.9" cy="106.1" r="0.82" fill="#2a2320" opacity="0.41"></circle><circle cx="59.7" cy="105.6" r="0.94" fill="#2a2320" opacity="0.46"></circle><circle cx="54.5" cy="105.1" r="1.07" fill="#2a2320" opacity="0.52"></circle><circle cx="49.2" cy="104.7" r="1.19" fill="#2a2320" opacity="0.57"></circle><circle cx="44.0" cy="104.2" r="1.31" fill="#2a2320" opacity="0.63"></circle><circle cx="38.8" cy="103.8" r="1.43" fill="#2a2320" opacity="0.68"></circle><circle cx="33.5" cy="103.3" r="1.56" fill="#2a2320" opacity="0.74"></circle><circle cx="28.3" cy="102.9" r="1.68" fill="#2a2320" opacity="0.79"></circle><circle cx="23.1" cy="102.4" r="1.80" fill="#2a2320" opacity="0.85"></circle><circle cx="76.5" cy="104.1" r="0.70" fill="#2a2320" opacity="0.35"></circle><circle cx="71.6" cy="103.2" r="0.79" fill="#2a2320" opacity="0.39"></circle><circle cx="66.7" cy="102.4" r="0.88" fill="#2a2320" opacity="0.43"></circle><circle cx="61.8" cy="101.5" r="0.97" fill="#2a2320" opacity="0.47"></circle><circle cx="56.9" cy="100.6" r="1.07" fill="#2a2320" opacity="0.52"></circle><circle cx="51.9" cy="99.8" r="1.16" fill="#2a2320" opacity="0.56"></circle><circle cx="47.0" cy="98.9" r="1.25" fill="#2a2320" opacity="0.60"></circle><circle cx="42.1" cy="98.0" r="1.34" fill="#2a2320" opacity="0.64"></circle><circle cx="37.2" cy="97.2" r="1.43" fill="#2a2320" opacity="0.68"></circle><circle cx="32.3" cy="96.3" r="1.52" fill="#2a2320" opacity="0.72"></circle><circle cx="27.4" cy="95.4" r="1.62" fill="#2a2320" opacity="0.77"></circle><circle cx="22.5" cy="94.6" r="1.71" fill="#2a2320" opacity="0.81"></circle><circle cx="17.5" cy="93.7" r="1.80" fill="#2a2320" opacity="0.85"></circle><circle cx="71.4" cy="99.6" r="0.70" fill="#2a2320" opacity="0.35"></circle><circle cx="66.4" cy="98.3" r="0.86" fill="#2a2320" opacity="0.42"></circle><circle cx="61.4" cy="97.0" r="1.01" fill="#2a2320" opacity="0.49"></circle><circle cx="56.4" cy="95.6" r="1.17" fill="#2a2320" opacity="0.56"></circle><circle cx="51.4" cy="94.3" r="1.33" fill="#2a2320" opacity="0.64"></circle><circle cx="46.4" cy="93.0" r="1.49" fill="#2a2320" opacity="0.71"></circle><circle cx="41.4" cy="91.6" r="1.64" fill="#2a2320" opacity="0.78"></circle><circle cx="36.4" cy="90.3" r="1.80" fill="#2a2320" opacity="0.85"></circle><circle cx="78.1" cy="98.4" r="0.70" fill="#2a2320" opacity="0.35"></circle><circle cx="73.5" cy="96.7" r="0.82" fill="#2a2320" opacity="0.41"></circle><circle cx="68.9" cy="95.0" r="0.94" fill="#2a2320" opacity="0.46"></circle><circle cx="64.3" cy="93.4" r="1.07" fill="#2a2320" opacity="0.52"></circle><circle cx="59.7" cy="91.7" r="1.19" fill="#2a2320" opacity="0.57"></circle><circle cx="55.1" cy="90.0" r="1.31" fill="#2a2320" opacity="0.63"></circle><circle cx="50.5" cy="88.3" r="1.43" fill="#2a2320" opacity="0.68"></circle><circle cx="45.9" cy="86.7" r="1.56" fill="#2a2320" opacity="0.74"></circle><circle cx="41.3" cy="85.0" r="1.68" fill="#2a2320" opacity="0.79"></circle><circle cx="36.7" cy="83.3" r="1.80" fill="#2a2320" opacity="0.85"></circle><circle cx="73.7" cy="93.1" r="0.70" fill="#2a2320" opacity="0.35"></circle><circle cx="69.6" cy="91.2" r="0.92" fill="#2a2320" opacity="0.45"></circle><circle cx="65.4" cy="89.2" r="1.14" fill="#2a2320" opacity="0.55"></circle><circle cx="61.3" cy="87.3" r="1.36" fill="#2a2320" opacity="0.65"></circle><circle cx="57.1" cy="85.3" r="1.58" fill="#2a2320" opacity="0.75"></circle><circle cx="53.0" cy="83.4" r="1.80" fill="#2a2320" opacity="0.85"></circle><circle cx="80.6" cy="93.0" r="0.70" fill="#2a2320" opacity="0.35"></circle><circle cx="77.0" cy="90.9" r="1.80" fill="#2a2320" opacity="0.85"></circle><circle cx="77.2" cy="87.1" r="0.70" fill="#2a2320" opacity="0.35"></circle><circle cx="72.8" cy="84.0" r="1.25" fill="#2a2320" opacity="0.60"></circle><circle cx="68.5" cy="80.9" r="1.80" fill="#2a2320" opacity="0.85"></circle><circle cx="84.0" cy="88.1" r="0.70" fill="#2a2320" opacity="0.35"></circle><circle cx="80.1" cy="84.9" r="0.92" fill="#2a2320" opacity="0.45"></circle><circle cx="76.2" cy="81.6" r="1.14" fill="#2a2320" opacity="0.55"></circle><circle cx="72.3" cy="78.4" r="1.36" fill="#2a2320" opacity="0.65"></circle><circle cx="68.5" cy="75.1" r="1.58" fill="#2a2320" opacity="0.75"></circle><circle cx="64.6" cy="71.9" r="1.80" fill="#2a2320" opacity="0.85"></circle><circle cx="81.7" cy="81.7" r="0.70" fill="#2a2320" opacity="0.35"></circle><circle cx="78.2" cy="78.2" r="0.97" fill="#2a2320" opacity="0.47"></circle><circle cx="74.7" cy="74.7" r="1.25" fill="#2a2320" opacity="0.60"></circle><circle cx="71.2" cy="71.2" r="1.52" fill="#2a2320" opacity="0.72"></circle><circle cx="67.7" cy="67.7" r="1.80" fill="#2a2320" opacity="0.85"></circle><circle cx="88.1" cy="84.0" r="0.70" fill="#2a2320" opacity="0.35"></circle><circle cx="85.0" cy="80.2" r="0.80" fill="#2a2320" opacity="0.40"></circle><circle cx="81.9" cy="76.5" r="0.90" fill="#2a2320" opacity="0.44"></circle><circle cx="78.8" cy="72.8" r="1.00" fill="#2a2320" opacity="0.49"></circle><circle cx="75.6" cy="69.0" r="1.10" fill="#2a2320" opacity="0.53"></circle><circle cx="72.5" cy="65.3" r="1.20" fill="#2a2320" opacity="0.58"></circle><circle cx="69.4" cy="61.6" r="1.30" fill="#2a2320" opacity="0.62"></circle><circle cx="66.2" cy="57.9" r="1.40" fill="#2a2320" opacity="0.67"></circle><circle cx="63.1" cy="54.1" r="1.50" fill="#2a2320" opacity="0.71"></circle><circle cx="60.0" cy="50.4" r="1.60" fill="#2a2320" opacity="0.76"></circle><circle cx="56.9" cy="46.7" r="1.70" fill="#2a2320" opacity="0.80"></circle><circle cx="53.7" cy="42.9" r="1.80" fill="#2a2320" opacity="0.85"></circle><circle cx="87.1" cy="77.2" r="0.70" fill="#2a2320" opacity="0.35"></circle><circle cx="84.2" cy="73.2" r="0.80" fill="#2a2320" opacity="0.40"></circle><circle cx="81.4" cy="69.2" r="0.90" fill="#2a2320" opacity="0.44"></circle><circle cx="78.6" cy="65.2" r="1.00" fill="#2a2320" opacity="0.49"></circle><circle cx="75.8" cy="61.2" r="1.10" fill="#2a2320" opacity="0.53"></circle><circle cx="73.0" cy="57.2" r="1.20" fill="#2a2320" opacity="0.58"></circle><circle cx="70.2" cy="53.1" r="1.30" fill="#2a2320" opacity="0.62"></circle><circle cx="67.4" cy="49.1" r="1.40" fill="#2a2320" opacity="0.67"></circle><circle cx="64.6" cy="45.1" r="1.50" fill="#2a2320" opacity="0.71"></circle><circle cx="61.8" cy="41.1" r="1.60" fill="#2a2320" opacity="0.76"></circle><circle cx="58.9" cy="37.1" r="1.70" fill="#2a2320" opacity="0.80"></circle><circle cx="56.1" cy="33.1" r="1.80" fill="#2a2320" opacity="0.85"></circle><circle cx="93.0" cy="80.6" r="0.70" fill="#2a2320" opacity="0.35"></circle><circle cx="90.4" cy="76.0" r="0.84" fill="#2a2320" opacity="0.41"></circle><circle cx="87.8" cy="71.5" r="0.97" fill="#2a2320" opacity="0.47"></circle><circle cx="85.1" cy="66.9" r="1.11" fill="#2a2320" opacity="0.54"></circle><circle cx="82.5" cy="62.4" r="1.25" fill="#2a2320" opacity="0.60"></circle><circle cx="79.9" cy="57.8" r="1.39" fill="#2a2320" opacity="0.66"></circle><circle cx="77.3" cy="53.3" r="1.52" fill="#2a2320" opacity="0.72"></circle><circle cx="74.6" cy="48.7" r="1.66" fill="#2a2320" opacity="0.79"></circle><circle cx="72.0" cy="44.2" r="1.80" fill="#2a2320" opacity="0.85"></circle><circle cx="93.1" cy="73.7" r="0.70" fill="#2a2320" opacity="0.35"></circle><circle cx="91.1" cy="69.5" r="0.84" fill="#2a2320" opacity="0.41"></circle><circle cx="89.1" cy="65.2" r="0.97" fill="#2a2320" opacity="0.47"></circle><circle cx="87.1" cy="61.0" r="1.11" fill="#2a2320" opacity="0.54"></circle><circle cx="85.1" cy="56.7" r="1.25" fill="#2a2320" opacity="0.60"></circle><circle cx="83.2" cy="52.4" r="1.39" fill="#2a2320" opacity="0.66"></circle><circle cx="81.2" cy="48.2" r="1.52" fill="#2a2320" opacity="0.72"></circle><circle cx="79.2" cy="43.9" r="1.66" fill="#2a2320" opacity="0.79"></circle><circle cx="77.2" cy="39.7" r="1.80" fill="#2a2320" opacity="0.85"></circle><circle cx="98.4" cy="78.1" r="0.70" fill="#2a2320" opacity="0.35"></circle><circle cx="96.7" cy="73.6" r="0.88" fill="#2a2320" opacity="0.43"></circle><circle cx="95.1" cy="69.1" r="1.07" fill="#2a2320" opacity="0.52"></circle><circle cx="93.5" cy="64.6" r="1.25" fill="#2a2320" opacity="0.60"></circle><circle cx="91.9" cy="60.1" r="1.43" fill="#2a2320" opacity="0.68"></circle><circle cx="90.2" cy="55.7" r="1.62" fill="#2a2320" opacity="0.77"></circle><circle cx="88.6" cy="51.2" r="1.80" fill="#2a2320" opacity="0.85"></circle><circle cx="NaN" cy="NaN" r="NaN" fill="#2a2320" opacity="NaN"></circle><circle cx="104.1" cy="76.5" r="0.70" fill="#2a2320" opacity="0.35"></circle><circle cx="103.1" cy="71.0" r="1.07" fill="#2a2320" opacity="0.52"></circle><circle cx="102.2" cy="65.5" r="1.43" fill="#2a2320" opacity="0.68"></circle><circle cx="101.2" cy="60.0" r="1.80" fill="#2a2320" opacity="0.85"></circle><circle cx="106.5" cy="70.2" r="0.70" fill="#2a2320" opacity="0.35"></circle><circle cx="106.1" cy="65.3" r="0.97" fill="#2a2320" opacity="0.47"></circle><circle cx="105.7" cy="60.4" r="1.25" fill="#2a2320" opacity="0.60"></circle><circle cx="105.2" cy="55.5" r="1.52" fill="#2a2320" opacity="0.72"></circle><circle cx="104.8" cy="50.6" r="1.80" fill="#2a2320" opacity="0.85"></circle><circle cx="110.0" cy="76.0" r="0.70" fill="#2a2320" opacity="0.35"></circle><circle cx="110.0" cy="70.8" r="0.92" fill="#2a2320" opacity="0.45"></circle><circle cx="110.0" cy="65.5" r="1.14" fill="#2a2320" opacity="0.55"></circle><circle cx="110.0" cy="60.3" r="1.36" fill="#2a2320" opacity="0.65"></circle><circle cx="110.0" cy="55.0" r="1.58" fill="#2a2320" opacity="0.75"></circle><circle cx="110.0" cy="49.8" r="1.80" fill="#2a2320" opacity="0.85"></circle><circle cx="113.5" cy="70.2" r="0.70" fill="#2a2320" opacity="0.35"></circle><circle cx="113.9" cy="65.4" r="0.81" fill="#2a2320" opacity="0.40"></circle><circle cx="114.3" cy="60.6" r="0.92" fill="#2a2320" opacity="0.45"></circle><circle cx="114.7" cy="55.9" r="1.03" fill="#2a2320" opacity="0.50"></circle><circle cx="115.2" cy="51.1" r="1.14" fill="#2a2320" opacity="0.55"></circle><circle cx="115.6" cy="46.3" r="1.25" fill="#2a2320" opacity="0.60"></circle><circle cx="116.0" cy="41.6" r="1.36" fill="#2a2320" opacity="0.65"></circle><circle cx="116.4" cy="36.8" r="1.47" fill="#2a2320" opacity="0.70"></circle><circle cx="116.8" cy="32.1" r="1.58" fill="#2a2320" opacity="0.75"></circle><circle cx="117.2" cy="27.3" r="1.69" fill="#2a2320" opacity="0.80"></circle><circle cx="117.7" cy="22.5" r="1.80" fill="#2a2320" opacity="0.85"></circle><circle cx="115.9" cy="76.5" r="0.70" fill="#2a2320" opacity="0.35"></circle><circle cx="116.8" cy="71.6" r="0.79" fill="#2a2320" opacity="0.39"></circle><circle cx="117.6" cy="66.7" r="0.88" fill="#2a2320" opacity="0.43"></circle><circle cx="118.5" cy="61.8" r="0.97" fill="#2a2320" opacity="0.47"></circle><circle cx="119.4" cy="56.8" r="1.07" fill="#2a2320" opacity="0.52"></circle><circle cx="120.2" cy="51.9" r="1.16" fill="#2a2320" opacity="0.56"></circle><circle cx="121.1" cy="47.0" r="1.25" fill="#2a2320" opacity="0.60"></circle><circle cx="122.0" cy="42.1" r="1.34" fill="#2a2320" opacity="0.64"></circle><circle cx="122.8" cy="37.2" r="1.43" fill="#2a2320" opacity="0.68"></circle><circle cx="123.7" cy="32.2" r="1.52" fill="#2a2320" opacity="0.72"></circle><circle cx="124.6" cy="27.3" r="1.62" fill="#2a2320" opacity="0.77"></circle><circle cx="125.4" cy="22.4" r="1.71" fill="#2a2320" opacity="0.81"></circle><circle cx="126.3" cy="17.5" r="1.80" fill="#2a2320" opacity="0.85"></circle><circle cx="120.4" cy="71.4" r="0.70" fill="#2a2320" opacity="0.35"></circle><circle cx="121.7" cy="66.4" r="0.86" fill="#2a2320" opacity="0.42"></circle><circle cx="123.0" cy="61.5" r="1.01" fill="#2a2320" opacity="0.49"></circle><circle cx="124.3" cy="56.6" r="1.17" fill="#2a2320" opacity="0.56"></circle><circle cx="125.6" cy="51.6" r="1.33" fill="#2a2320" opacity="0.64"></circle><circle cx="127.0" cy="46.7" r="1.49" fill="#2a2320" opacity="0.71"></circle><circle cx="128.3" cy="41.7" r="1.64" fill="#2a2320" opacity="0.78"></circle><circle cx="129.6" cy="36.8" r="1.80" fill="#2a2320" opacity="0.85"></circle><circle cx="121.6" cy="78.1" r="0.70" fill="#2a2320" opacity="0.35"></circle><circle cx="123.3" cy="73.5" r="0.82" fill="#2a2320" opacity="0.41"></circle><circle cx="124.9" cy="69.0" r="0.94" fill="#2a2320" opacity="0.46"></circle><circle cx="126.6" cy="64.5" r="1.07" fill="#2a2320" opacity="0.52"></circle><circle cx="128.2" cy="60.0" r="1.19" fill="#2a2320" opacity="0.57"></circle><circle cx="129.8" cy="55.5" r="1.31" fill="#2a2320" opacity="0.63"></circle><circle cx="131.5" cy="51.0" r="1.43" fill="#2a2320" opacity="0.68"></circle><circle cx="133.1" cy="46.4" r="1.56" fill="#2a2320" opacity="0.74"></circle><circle cx="134.8" cy="41.9" r="1.68" fill="#2a2320" opacity="0.79"></circle><circle cx="136.4" cy="37.4" r="1.80" fill="#2a2320" opacity="0.85"></circle><circle cx="126.9" cy="73.7" r="0.70" fill="#2a2320" opacity="0.35"></circle><circle cx="129.3" cy="68.7" r="0.97" fill="#2a2320" opacity="0.47"></circle><circle cx="131.6" cy="63.7" r="1.25" fill="#2a2320" opacity="0.60"></circle><circle cx="134.0" cy="58.6" r="1.52" fill="#2a2320" opacity="0.72"></circle><circle cx="136.3" cy="53.6" r="1.80" fill="#2a2320" opacity="0.85"></circle><circle cx="127.0" cy="80.6" r="0.70" fill="#2a2320" opacity="0.35"></circle><circle cx="128.9" cy="77.2" r="1.80" fill="#2a2320" opacity="0.85"></circle><circle cx="132.9" cy="77.2" r="0.70" fill="#2a2320" opacity="0.35"></circle><circle cx="136.1" cy="72.8" r="1.25" fill="#2a2320" opacity="0.60"></circle><circle cx="139.2" cy="68.3" r="1.80" fill="#2a2320" opacity="0.85"></circle><circle cx="131.9" cy="84.0" r="0.70" fill="#2a2320" opacity="0.35"></circle><circle cx="135.2" cy="80.0" r="0.92" fill="#2a2320" opacity="0.45"></circle><circle cx="138.5" cy="76.0" r="1.14" fill="#2a2320" opacity="0.55"></circle><circle cx="141.8" cy="72.0" r="1.36" fill="#2a2320" opacity="0.65"></circle><circle cx="145.2" cy="68.1" r="1.58" fill="#2a2320" opacity="0.75"></circle><circle cx="148.5" cy="64.1" r="1.80" fill="#2a2320" opacity="0.85"></circle><circle cx="138.3" cy="81.7" r="0.70" fill="#2a2320" opacity="0.35"></circle><circle cx="141.9" cy="78.1" r="0.97" fill="#2a2320" opacity="0.47"></circle><circle cx="145.6" cy="74.4" r="1.25" fill="#2a2320" opacity="0.60"></circle><circle cx="149.2" cy="70.8" r="1.52" fill="#2a2320" opacity="0.72"></circle><circle cx="152.8" cy="67.2" r="1.80" fill="#2a2320" opacity="0.85"></circle><circle cx="136.0" cy="88.1" r="0.70" fill="#2a2320" opacity="0.35"></circle><circle cx="139.8" cy="85.0" r="0.80" fill="#2a2320" opacity="0.40"></circle><circle cx="143.6" cy="81.8" r="0.90" fill="#2a2320" opacity="0.44"></circle><circle cx="147.3" cy="78.7" r="1.00" fill="#2a2320" opacity="0.49"></circle><circle cx="151.1" cy="75.5" r="1.10" fill="#2a2320" opacity="0.53"></circle><circle cx="154.9" cy="72.4" r="1.20" fill="#2a2320" opacity="0.58"></circle><circle cx="158.6" cy="69.2" r="1.30" fill="#2a2320" opacity="0.62"></circle><circle cx="162.4" cy="66.0" r="1.40" fill="#2a2320" opacity="0.67"></circle><circle cx="166.2" cy="62.9" r="1.50" fill="#2a2320" opacity="0.71"></circle><circle cx="169.9" cy="59.7" r="1.60" fill="#2a2320" opacity="0.76"></circle><circle cx="173.7" cy="56.6" r="1.70" fill="#2a2320" opacity="0.80"></circle><circle cx="177.5" cy="53.4" r="1.80" fill="#2a2320" opacity="0.85"></circle><circle cx="142.8" cy="87.1" r="0.70" fill="#2a2320" opacity="0.35"></circle><circle cx="146.8" cy="84.2" r="0.80" fill="#2a2320" opacity="0.40"></circle><circle cx="150.8" cy="81.4" r="0.90" fill="#2a2320" opacity="0.44"></circle><circle cx="154.8" cy="78.6" r="1.00" fill="#2a2320" opacity="0.49"></circle><circle cx="158.8" cy="75.8" r="1.10" fill="#2a2320" opacity="0.53"></circle><circle cx="162.9" cy="73.0" r="1.20" fill="#2a2320" opacity="0.58"></circle><circle cx="166.9" cy="70.2" r="1.30" fill="#2a2320" opacity="0.62"></circle><circle cx="170.9" cy="67.4" r="1.40" fill="#2a2320" opacity="0.67"></circle><circle cx="174.9" cy="64.5" r="1.50" fill="#2a2320" opacity="0.71"></circle><circle cx="178.9" cy="61.7" r="1.60" fill="#2a2320" opacity="0.76"></circle><circle cx="183.0" cy="58.9" r="1.70" fill="#2a2320" opacity="0.80"></circle><circle cx="187.0" cy="56.1" r="1.80" fill="#2a2320" opacity="0.85"></circle><circle cx="139.4" cy="93.0" r="0.70" fill="#2a2320" opacity="0.35"></circle><circle cx="143.9" cy="90.4" r="0.84" fill="#2a2320" opacity="0.41"></circle><circle cx="148.4" cy="87.8" r="0.97" fill="#2a2320" opacity="0.47"></circle><circle cx="152.9" cy="85.2" r="1.11" fill="#2a2320" opacity="0.54"></circle><circle cx="157.4" cy="82.6" r="1.25" fill="#2a2320" opacity="0.60"></circle><circle cx="161.9" cy="80.0" r="1.39" fill="#2a2320" opacity="0.66"></circle><circle cx="166.4" cy="77.4" r="1.52" fill="#2a2320" opacity="0.72"></circle><circle cx="170.9" cy="74.8" r="1.66" fill="#2a2320" opacity="0.79"></circle><circle cx="175.4" cy="72.2" r="1.80" fill="#2a2320" opacity="0.85"></circle><circle cx="146.3" cy="93.1" r="0.70" fill="#2a2320" opacity="0.35"></circle><circle cx="151.0" cy="90.9" r="0.86" fill="#2a2320" opacity="0.42"></circle><circle cx="155.8" cy="88.6" r="1.01" fill="#2a2320" opacity="0.49"></circle><circle cx="160.6" cy="86.4" r="1.17" fill="#2a2320" opacity="0.56"></circle><circle cx="165.4" cy="84.2" r="1.33" fill="#2a2320" opacity="0.64"></circle><circle cx="170.1" cy="82.0" r="1.49" fill="#2a2320" opacity="0.71"></circle><circle cx="174.9" cy="79.7" r="1.64" fill="#2a2320" opacity="0.78"></circle><circle cx="179.7" cy="77.5" r="1.80" fill="#2a2320" opacity="0.85"></circle><circle cx="141.9" cy="98.4" r="0.70" fill="#2a2320" opacity="0.35"></circle><circle cx="146.3" cy="96.8" r="0.88" fill="#2a2320" opacity="0.43"></circle><circle cx="150.7" cy="95.2" r="1.07" fill="#2a2320" opacity="0.52"></circle><circle cx="155.1" cy="93.6" r="1.25" fill="#2a2320" opacity="0.60"></circle><circle cx="159.4" cy="92.0" r="1.43" fill="#2a2320" opacity="0.68"></circle><circle cx="163.8" cy="90.4" r="1.62" fill="#2a2320" opacity="0.77"></circle><circle cx="168.2" cy="88.8" r="1.80" fill="#2a2320" opacity="0.85"></circle><circle cx="NaN" cy="NaN" r="NaN" fill="#2a2320" opacity="NaN"></circle><circle cx="143.5" cy="104.1" r="0.70" fill="#2a2320" opacity="0.35"></circle><circle cx="149.1" cy="103.1" r="1.07" fill="#2a2320" opacity="0.52"></circle><circle cx="154.7" cy="102.1" r="1.43" fill="#2a2320" opacity="0.68"></circle><circle cx="160.2" cy="101.1" r="1.80" fill="#2a2320" opacity="0.85"></circle><circle cx="149.8" cy="106.5" r="0.70" fill="#2a2320" opacity="0.35"></circle><circle cx="154.9" cy="106.1" r="0.97" fill="#2a2320" opacity="0.47"></circle><circle cx="159.9" cy="105.6" r="1.25" fill="#2a2320" opacity="0.60"></circle><circle cx="164.9" cy="105.2" r="1.52" fill="#2a2320" opacity="0.72"></circle><circle cx="170.0" cy="104.8" r="1.80" fill="#2a2320" opacity="0.85"></circle></svg>