<svg viewBox="0 0 220 220" xmlns="http://www.w3.org/2000/svg"><line x1="110" y1="46" x2="60" y2="86" stroke="#2a2320" stroke-width="1" opacity="0.5"></line><line x1="110" y1="46" x2="160" y2="82" stroke="#2a2320" stroke-width="1" opacity="0.5"></line><line x1="60" y1="86" x2="110" y2="116" stroke="#2a2320" stroke-width="1" opacity="0.5"></line><line x1="160" y1="82" x2="110" y2="116" stroke="#2a2320" stroke-width="1" opacity="0.5"></line><line x1="60" y1="86" x2="44" y2="140" stroke="#2a2320" stroke-width="1" opacity="0.5"></line><line x1="160" y1="82" x2="176" y2="146" stroke="#2a2320" stroke-width="1" opacity="0.5"></line><line x1="110" y1="116" x2="80" y2="176" stroke="#2a2320" stroke-width="1" opacity="0.5"></line><line x1="110" y1="116" x2="146" y2="176" stroke="#2a2320" stroke-width="1" opacity="0.5"></line><line x1="44" y1="140" x2="80" y2="176" stroke="#2a2320" stroke-width="1" opacity="0.5"></line><line x1="176" y1="146" x2="146" y2="176" stroke="#2a2320" stroke-width="1" opacity="0.5"></line><line x1="80" y1="176" x2="146" y2="176" stroke="#2a2320" stroke-width="1" opacity="0.5"></line><line x1="110" y1="46" x2="110" y2="116" stroke="#2a2320" stroke-width="1" opacity="0.5"></line><circle cx="110" cy="46" r="4.5" fill="#fff" stroke="#2a2320" stroke-width="1.3"></circle><circle cx="60" cy="86" r="4.5" fill="#fff" stroke="#2a2320" stroke-width="1.3"></circle><circle cx="160" cy="82" r="4.5" fill="#fff" stroke="#2a2320" stroke-width="1.3"></circle><circle cx="44" cy="140" r="4.5" fill="#fff" stroke="#2a2320" stroke-width="1.3"></circle><circle cx="110" cy="116" r="7" fill="#911007" stroke="#2a2320" stroke-width="1.3"></circle><circle cx="176" cy="146" r="4.5" fill="#fff" stroke="#2a2320" stroke-width="1.3"></circle><circle cx="80" cy="176" r="4.5" fill="#fff" stroke="#2a2320" stroke-width="1.3"></circle><circle cx="146" cy="176" r="4.5" fill="#fff" stroke="#2a2320" stroke-width="1.3"></circle></svg>